<?xml version="1.0" encoding="UTF-8"?>
<svg version="1.1" xmlns="http://www.w3.org/2000/svg" width="1024" height="1024">
<path d="M0 0 C337.92 0 675.84 0 1024 0 C1024 337.92 1024 675.84 1024 1024 C686.08 1024 348.16 1024 0 1024 C0 686.08 0 348.16 0 0 Z M32 32 C32 127.04 32 222.08 32 320 C127.04 320 222.08 320 320 320 C320 224.96 320 129.92 320 32 C224.96 32 129.92 32 32 32 Z M352 32 C352 127.04 352 222.08 352 320 C457.6 320 563.2 320 672 320 C672 224.96 672 129.92 672 32 C566.4 32 460.8 32 352 32 Z M704 32 C704 127.04 704 222.08 704 320 C799.04 320 894.08 320 992 320 C992 224.96 992 129.92 992 32 C896.96 32 801.92 32 704 32 Z M32 352 C32 457.6 32 563.2 32 672 C127.04 672 222.08 672 320 672 C320 566.4 320 460.8 320 352 C224.96 352 129.92 352 32 352 Z M352 352 C352 457.6 352 563.2 352 672 C457.6 672 563.2 672 672 672 C672 566.4 672 460.8 672 352 C566.4 352 460.8 352 352 352 Z M704 352 C704 457.6 704 563.2 704 672 C799.04 672 894.08 672 992 672 C992 566.4 992 460.8 992 352 C896.96 352 801.92 352 704 352 Z M32 704 C32 799.04 32 894.08 32 992 C127.04 992 222.08 992 320 992 C320 896.96 320 801.92 320 704 C224.96 704 129.92 704 32 704 Z M352 704 C352 799.04 352 894.08 352 992 C457.6 992 563.2 992 672 992 C672 896.96 672 801.92 672 704 C566.4 704 460.8 704 352 704 Z M704 704 C704 799.04 704 894.08 704 992 C799.04 992 894.08 992 992 992 C992 896.96 992 801.92 992 704 C896.96 704 801.92 704 704 704 Z " fill="#635BFF" transform="translate(0,0)"/>
<path d="M0 0 C29.04 0 58.08 0 88 0 C88 25.08 88 50.16 88 76 C113.08 76 138.16 76 164 76 C164 105.04 164 134.08 164 164 C138.92 164 113.84 164 88 164 C88 189.08 88 214.16 88 240 C58.96 240 29.92 240 0 240 C0 214.92 0 189.84 0 164 C-25.08 164 -50.16 164 -76 164 C-76 134.96 -76 105.92 -76 76 C-50.92 76 -25.84 76 0 76 C0 50.92 0 25.84 0 0 Z " fill="#092440" transform="translate(468,392)"/>
</svg>
