<?xml version="1.0" encoding="UTF-8"?>
<svg version="1.1" xmlns="http://www.w3.org/2000/svg" width="3072" height="3072">
<path d="M0 0 C295.68 0 591.36 0 896 0 C896 295.68 896 591.36 896 896 C600.32 896 304.64 896 0 896 C0 600.32 0 304.64 0 0 Z M28 28 C28 111.16 28 194.32 28 280 C111.16 280 194.32 280 280 280 C280 196.84 280 113.68 280 28 C196.84 28 113.68 28 28 28 Z M308 28 C308 111.16 308 194.32 308 280 C400.4 280 492.8 280 588 280 C588 196.84 588 113.68 588 28 C495.6 28 403.2 28 308 28 Z M616 28 C616 111.16 616 194.32 616 280 C699.16 280 782.32 280 868 280 C868 196.84 868 113.68 868 28 C784.84 28 701.68 28 616 28 Z M28 308 C28 400.4 28 492.8 28 588 C111.16 588 194.32 588 280 588 C280 495.6 280 403.2 280 308 C196.84 308 113.68 308 28 308 Z M308 308 C308 400.4 308 492.8 308 588 C400.4 588 492.8 588 588 588 C588 495.6 588 403.2 588 308 C495.6 308 403.2 308 308 308 Z M616 308 C616 400.4 616 492.8 616 588 C699.16 588 782.32 588 868 588 C868 495.6 868 403.2 868 308 C784.84 308 701.68 308 616 308 Z M28 616 C28 699.16 28 782.32 28 868 C111.16 868 194.32 868 280 868 C280 784.84 280 701.68 280 616 C196.84 616 113.68 616 28 616 Z M308 616 C308 699.16 308 782.32 308 868 C400.4 868 492.8 868 588 868 C588 784.84 588 701.68 588 616 C495.6 616 403.2 616 308 616 Z M616 616 C616 699.16 616 782.32 616 868 C699.16 868 782.32 868 868 868 C868 784.84 868 701.68 868 616 C784.84 616 701.68 616 616 616 Z " fill="#635BFF" transform="translate(1088,2176)"/>
<path d="M0 0 C295.68 0 591.36 0 896 0 C896 295.68 896 591.36 896 896 C600.32 896 304.64 896 0 896 C0 600.32 0 304.64 0 0 Z M28 28 C28 111.16 28 194.32 28 280 C111.16 280 194.32 280 280 280 C280 196.84 280 113.68 280 28 C196.84 28 113.68 28 28 28 Z M308 28 C308 111.16 308 194.32 308 280 C400.4 280 492.8 280 588 280 C588 196.84 588 113.68 588 28 C495.6 28 403.2 28 308 28 Z M616 28 C616 111.16 616 194.32 616 280 C699.16 280 782.32 280 868 280 C868 196.84 868 113.68 868 28 C784.84 28 701.68 28 616 28 Z M28 308 C28 400.4 28 492.8 28 588 C111.16 588 194.32 588 280 588 C280 495.6 280 403.2 280 308 C196.84 308 113.68 308 28 308 Z M308 308 C308 400.4 308 492.8 308 588 C400.4 588 492.8 588 588 588 C588 495.6 588 403.2 588 308 C495.6 308 403.2 308 308 308 Z M616 308 C616 400.4 616 492.8 616 588 C699.16 588 782.32 588 868 588 C868 495.6 868 403.2 868 308 C784.84 308 701.68 308 616 308 Z M28 616 C28 699.16 28 782.32 28 868 C111.16 868 194.32 868 280 868 C280 784.84 280 701.68 280 616 C196.84 616 113.68 616 28 616 Z M308 616 C308 699.16 308 782.32 308 868 C400.4 868 492.8 868 588 868 C588 784.84 588 701.68 588 616 C495.6 616 403.2 616 308 616 Z M616 616 C616 699.16 616 782.32 616 868 C699.16 868 782.32 868 868 868 C868 784.84 868 701.68 868 616 C784.84 616 701.68 616 616 616 Z " fill="#635BFF" transform="translate(0,2176)"/>
<path d="M0 0 C295.68 0 591.36 0 896 0 C896 295.68 896 591.36 896 896 C600.32 896 304.64 896 0 896 C0 600.32 0 304.64 0 0 Z M28 28 C28 111.16 28 194.32 28 280 C111.16 280 194.32 280 280 280 C280 196.84 280 113.68 280 28 C196.84 28 113.68 28 28 28 Z M308 28 C308 111.16 308 194.32 308 280 C400.4 280 492.8 280 588 280 C588 196.84 588 113.68 588 28 C495.6 28 403.2 28 308 28 Z M616 28 C616 111.16 616 194.32 616 280 C699.16 280 782.32 280 868 280 C868 196.84 868 113.68 868 28 C784.84 28 701.68 28 616 28 Z M28 308 C28 400.4 28 492.8 28 588 C111.16 588 194.32 588 280 588 C280 495.6 280 403.2 280 308 C196.84 308 113.68 308 28 308 Z M308 308 C308 400.4 308 492.8 308 588 C400.4 588 492.8 588 588 588 C588 495.6 588 403.2 588 308 C495.6 308 403.2 308 308 308 Z M616 308 C616 400.4 616 492.8 616 588 C699.16 588 782.32 588 868 588 C868 495.6 868 403.2 868 308 C784.84 308 701.68 308 616 308 Z M28 616 C28 699.16 28 782.32 28 868 C111.16 868 194.32 868 280 868 C280 784.84 280 701.68 280 616 C196.84 616 113.68 616 28 616 Z M308 616 C308 699.16 308 782.32 308 868 C400.4 868 492.8 868 588 868 C588 784.84 588 701.68 588 616 C495.6 616 403.2 616 308 616 Z M616 616 C616 699.16 616 782.32 616 868 C699.16 868 782.32 868 868 868 C868 784.84 868 701.68 868 616 C784.84 616 701.68 616 616 616 Z " fill="#635BFF" transform="translate(2176,1088)"/>
<path d="M0 0 C295.68 0 591.36 0 896 0 C896 295.68 896 591.36 896 896 C600.32 896 304.64 896 0 896 C0 600.32 0 304.64 0 0 Z M28 28 C28 111.16 28 194.32 28 280 C111.16 280 194.32 280 280 280 C280 196.84 280 113.68 280 28 C196.84 28 113.68 28 28 28 Z M308 28 C308 111.16 308 194.32 308 280 C400.4 280 492.8 280 588 280 C588 196.84 588 113.68 588 28 C495.6 28 403.2 28 308 28 Z M616 28 C616 111.16 616 194.32 616 280 C699.16 280 782.32 280 868 280 C868 196.84 868 113.68 868 28 C784.84 28 701.68 28 616 28 Z M28 308 C28 400.4 28 492.8 28 588 C111.16 588 194.32 588 280 588 C280 495.6 280 403.2 280 308 C196.84 308 113.68 308 28 308 Z M308 308 C308 400.4 308 492.8 308 588 C400.4 588 492.8 588 588 588 C588 495.6 588 403.2 588 308 C495.6 308 403.2 308 308 308 Z M616 308 C616 400.4 616 492.8 616 588 C699.16 588 782.32 588 868 588 C868 495.6 868 403.2 868 308 C784.84 308 701.68 308 616 308 Z M28 616 C28 699.16 28 782.32 28 868 C111.16 868 194.32 868 280 868 C280 784.84 280 701.68 280 616 C196.84 616 113.68 616 28 616 Z M308 616 C308 699.16 308 782.32 308 868 C400.4 868 492.8 868 588 868 C588 784.84 588 701.68 588 616 C495.6 616 403.2 616 308 616 Z M616 616 C616 699.16 616 782.32 616 868 C699.16 868 782.32 868 868 868 C868 784.84 868 701.68 868 616 C784.84 616 701.68 616 616 616 Z " fill="#635BFF" transform="translate(1088,1088)"/>
<path d="M0 0 C295.68 0 591.36 0 896 0 C896 295.68 896 591.36 896 896 C600.32 896 304.64 896 0 896 C0 600.32 0 304.64 0 0 Z M28 28 C28 111.16 28 194.32 28 280 C111.16 280 194.32 280 280 280 C280 196.84 280 113.68 280 28 C196.84 28 113.68 28 28 28 Z M308 28 C308 111.16 308 194.32 308 280 C400.4 280 492.8 280 588 280 C588 196.84 588 113.68 588 28 C495.6 28 403.2 28 308 28 Z M616 28 C616 111.16 616 194.32 616 280 C699.16 280 782.32 280 868 280 C868 196.84 868 113.68 868 28 C784.84 28 701.68 28 616 28 Z M28 308 C28 400.4 28 492.8 28 588 C111.16 588 194.32 588 280 588 C280 495.6 280 403.2 280 308 C196.84 308 113.68 308 28 308 Z M308 308 C308 400.4 308 492.8 308 588 C400.4 588 492.8 588 588 588 C588 495.6 588 403.2 588 308 C495.6 308 403.2 308 308 308 Z M616 308 C616 400.4 616 492.8 616 588 C699.16 588 782.32 588 868 588 C868 495.6 868 403.2 868 308 C784.84 308 701.68 308 616 308 Z M28 616 C28 699.16 28 782.32 28 868 C111.16 868 194.32 868 280 868 C280 784.84 280 701.68 280 616 C196.84 616 113.68 616 28 616 Z M308 616 C308 699.16 308 782.32 308 868 C400.4 868 492.8 868 588 868 C588 784.84 588 701.68 588 616 C495.6 616 403.2 616 308 616 Z M616 616 C616 699.16 616 782.32 616 868 C699.16 868 782.32 868 868 868 C868 784.84 868 701.68 868 616 C784.84 616 701.68 616 616 616 Z " fill="#635BFF" transform="translate(0,1088)"/>
<path d="M0 0 C295.68 0 591.36 0 896 0 C896 295.68 896 591.36 896 896 C600.32 896 304.64 896 0 896 C0 600.32 0 304.64 0 0 Z M28 28 C28 111.16 28 194.32 28 280 C111.16 280 194.32 280 280 280 C280 196.84 280 113.68 280 28 C196.84 28 113.68 28 28 28 Z M308 28 C308 111.16 308 194.32 308 280 C400.4 280 492.8 280 588 280 C588 196.84 588 113.68 588 28 C495.6 28 403.2 28 308 28 Z M616 28 C616 111.16 616 194.32 616 280 C699.16 280 782.32 280 868 280 C868 196.84 868 113.68 868 28 C784.84 28 701.68 28 616 28 Z M28 308 C28 400.4 28 492.8 28 588 C111.16 588 194.32 588 280 588 C280 495.6 280 403.2 280 308 C196.84 308 113.68 308 28 308 Z M308 308 C308 400.4 308 492.8 308 588 C400.4 588 492.8 588 588 588 C588 495.6 588 403.2 588 308 C495.6 308 403.2 308 308 308 Z M616 308 C616 400.4 616 492.8 616 588 C699.16 588 782.32 588 868 588 C868 495.6 868 403.2 868 308 C784.84 308 701.68 308 616 308 Z M28 616 C28 699.16 28 782.32 28 868 C111.16 868 194.32 868 280 868 C280 784.84 280 701.68 280 616 C196.84 616 113.68 616 28 616 Z M308 616 C308 699.16 308 782.32 308 868 C400.4 868 492.8 868 588 868 C588 784.84 588 701.68 588 616 C495.6 616 403.2 616 308 616 Z M616 616 C616 699.16 616 782.32 616 868 C699.16 868 782.32 868 868 868 C868 784.84 868 701.68 868 616 C784.84 616 701.68 616 616 616 Z " fill="#635BFF" transform="translate(2176,0)"/>
<path d="M0 0 C295.68 0 591.36 0 896 0 C896 295.68 896 591.36 896 896 C600.32 896 304.64 896 0 896 C0 600.32 0 304.64 0 0 Z M28 28 C28 111.16 28 194.32 28 280 C111.16 280 194.32 280 280 280 C280 196.84 280 113.68 280 28 C196.84 28 113.68 28 28 28 Z M308 28 C308 111.16 308 194.32 308 280 C400.4 280 492.8 280 588 280 C588 196.84 588 113.68 588 28 C495.6 28 403.2 28 308 28 Z M616 28 C616 111.16 616 194.32 616 280 C699.16 280 782.32 280 868 280 C868 196.84 868 113.68 868 28 C784.84 28 701.68 28 616 28 Z M28 308 C28 400.4 28 492.8 28 588 C111.16 588 194.32 588 280 588 C280 495.6 280 403.2 280 308 C196.84 308 113.68 308 28 308 Z M308 308 C308 400.4 308 492.8 308 588 C400.4 588 492.8 588 588 588 C588 495.6 588 403.2 588 308 C495.6 308 403.2 308 308 308 Z M616 308 C616 400.4 616 492.8 616 588 C699.16 588 782.32 588 868 588 C868 495.6 868 403.2 868 308 C784.84 308 701.68 308 616 308 Z M28 616 C28 699.16 28 782.32 28 868 C111.16 868 194.32 868 280 868 C280 784.84 280 701.68 280 616 C196.84 616 113.68 616 28 616 Z M308 616 C308 699.16 308 782.32 308 868 C400.4 868 492.8 868 588 868 C588 784.84 588 701.68 588 616 C495.6 616 403.2 616 308 616 Z M616 616 C616 699.16 616 782.32 616 868 C699.16 868 782.32 868 868 868 C868 784.84 868 701.68 868 616 C784.84 616 701.68 616 616 616 Z " fill="#635BFF" transform="translate(1088,0)"/>
<path d="M0 0 C295.68 0 591.36 0 896 0 C896 295.68 896 591.36 896 896 C600.32 896 304.64 896 0 896 C0 600.32 0 304.64 0 0 Z M28 28 C28 111.16 28 194.32 28 280 C111.16 280 194.32 280 280 280 C280 196.84 280 113.68 280 28 C196.84 28 113.68 28 28 28 Z M308 28 C308 111.16 308 194.32 308 280 C400.4 280 492.8 280 588 280 C588 196.84 588 113.68 588 28 C495.6 28 403.2 28 308 28 Z M616 28 C616 111.16 616 194.32 616 280 C699.16 280 782.32 280 868 280 C868 196.84 868 113.68 868 28 C784.84 28 701.68 28 616 28 Z M28 308 C28 400.4 28 492.8 28 588 C111.16 588 194.32 588 280 588 C280 495.6 280 403.2 280 308 C196.84 308 113.68 308 28 308 Z M308 308 C308 400.4 308 492.8 308 588 C400.4 588 492.8 588 588 588 C588 495.6 588 403.2 588 308 C495.6 308 403.2 308 308 308 Z M616 308 C616 400.4 616 492.8 616 588 C699.16 588 782.32 588 868 588 C868 495.6 868 403.2 868 308 C784.84 308 701.68 308 616 308 Z M28 616 C28 699.16 28 782.32 28 868 C111.16 868 194.32 868 280 868 C280 784.84 280 701.68 280 616 C196.84 616 113.68 616 28 616 Z M308 616 C308 699.16 308 782.32 308 868 C400.4 868 492.8 868 588 868 C588 784.84 588 701.68 588 616 C495.6 616 403.2 616 308 616 Z M616 616 C616 699.16 616 782.32 616 868 C699.16 868 782.32 868 868 868 C868 784.84 868 701.68 868 616 C784.84 616 701.68 616 616 616 Z " fill="#635BFF" transform="translate(0,0)"/>
<path d="M0 0 C0.80143433 -0.00535767 1.60286865 -0.01071533 2.42858887 -0.01623535 C37.56031978 -0.19440457 74.0000084 7.04167286 102.75 28.25 C104.02230469 29.18779297 104.02230469 29.18779297 105.3203125 30.14453125 C128.38710618 47.89656212 143.85147225 72.7390366 148.4140625 101.62109375 C153.34572021 140.21418255 145.18401412 178.40711396 121.26171875 209.56640625 C119.14495028 212.18123789 116.97280559 214.7252779 114.75 217.25 C114.21890625 217.90097656 113.6878125 218.55195313 113.140625 219.22265625 C110.09510586 222.94768638 106.7898981 226.08045965 103.12109375 229.1875 C100.80726967 231.20018388 98.58621176 233.29340853 96.36621094 235.40844727 C73.94431704 256.62118465 45.40279187 275.42360406 17.75 289.25 C17.42 313.34 17.09 337.43 16.75 362.25 C7.200625 362.270625 -2.34875 362.29125 -12.1875 362.3125 C-15.20640381 362.321604 -18.22530762 362.33070801 -21.33569336 362.34008789 C-23.71207637 362.3430068 -26.08845988 362.34555541 -28.46484375 362.34765625 C-29.712052 362.35277222 -30.95926025 362.35788818 -32.2442627 362.36315918 C-33.42170044 362.36328003 -34.59913818 362.36340088 -35.81225586 362.36352539 C-37.3544706 362.36685631 -37.3544706 362.36685631 -38.92784119 362.37025452 C-41.25 362.25 -41.25 362.25 -42.25 361.25 C-42.39328644 358.2384575 -42.47117301 355.24912551 -42.50634766 352.2355957 C-42.52825165 350.81605843 -42.52825165 350.81605843 -42.55059814 349.36784363 C-42.67667724 340.62774385 -42.74534736 331.88672085 -42.79844093 323.14590168 C-42.83422335 317.26920192 -42.88756645 311.39386869 -42.98388672 305.51782227 C-43.07663739 299.84310367 -43.12535114 294.16959526 -43.14283371 288.49416161 C-43.15694247 286.33028749 -43.18661477 284.16645678 -43.23213577 282.00301552 C-43.29281211 278.97102852 -43.29687024 275.94384611 -43.28759766 272.91137695 C-43.31838409 272.01814728 -43.34917053 271.1249176 -43.38088989 270.20462036 C-43.33755807 267.59730469 -43.1967644 265.68385044 -42.25 263.25 C-39.53014515 260.66583938 -36.56759324 258.96501967 -33.25 257.25 C-32.16936279 256.60337402 -31.08872559 255.95674805 -29.9753418 255.29052734 C-28.97672119 254.7280127 -27.97810059 254.16549805 -26.94921875 253.5859375 C-25.81718018 252.94495117 -24.6851416 252.30396484 -23.51879883 251.64355469 C-22.9343399 251.31432007 -22.34988098 250.98508545 -21.74771118 250.64587402 C-18.63604895 248.89104278 -15.53305276 247.121013 -12.4296875 245.3515625 C-11.81255386 244.99980957 -11.19542023 244.64805664 -10.55958557 244.28564453 C9.96835216 232.5734495 29.28997499 220.27257422 46.75 204.25 C47.65234375 203.43144531 48.5546875 202.61289063 49.484375 201.76953125 C68.95084695 183.26398387 81.05793775 160.65797975 81.953125 133.62109375 C82.16845732 119.91298313 81.47234888 106.55531659 74.75 94.25 C74.31816406 93.43015625 73.88632813 92.6103125 73.44140625 91.765625 C67.64858469 81.40448074 59.94999754 75.11355791 49.75 69.25 C48.98171875 68.79753906 48.2134375 68.34507812 47.421875 67.87890625 C42.28036696 65.07206257 36.96417087 63.23962313 31.375 61.5625 C30.70388184 61.35995605 30.03276367 61.15741211 29.34130859 60.94873047 C17.93510683 57.69485564 6.68473515 56.8755543 -5.125 56.9375 C-6.20832611 56.94023422 -6.20832611 56.94023422 -7.3135376 56.94302368 C-26.60868518 57.02466334 -44.76834582 59.65780916 -63.25 65.25 C-63.98637695 65.47026855 -64.72275391 65.69053711 -65.48144531 65.91748047 C-82.27866362 71.01888532 -98.59469367 77.77250775 -113.83422852 86.50708008 C-117.80860816 88.73323103 -119.505316 89.25 -124.25 89.25 C-124.25 67.14 -124.25 45.03 -124.25 22.25 C-92.90580383 11.80193461 -92.90580383 11.80193461 -81.6875 9.4375 C-80.40504395 9.15817627 -79.12258789 8.87885254 -77.80126953 8.59106445 C-65.36538876 5.92134273 -52.85955514 3.88979803 -40.25 2.25 C-39.41049805 2.13285645 -38.57099609 2.01571289 -37.70605469 1.89501953 C-25.1715614 0.17974625 -12.62973183 0.04708252 0 0 Z " fill="#09243F" transform="translate(2619.25,2316.75)"/>
<path d="M0 0 C29.04 0 58.08 0 88 0 C88 25.08 88 50.16 88 76 C113.08 76 138.16 76 164 76 C164 105.04 164 134.08 164 164 C138.92 164 113.84 164 88 164 C88 189.08 88 214.16 88 240 C58.96 240 29.92 240 0 240 C0 214.92 0 189.84 0 164 C-25.08 164 -50.16 164 -76 164 C-76 134.96 -76 105.92 -76 76 C-50.92 76 -25.84 76 0 76 C0 50.92 0 25.84 0 0 Z " fill="#092440" transform="translate(1492,2503)"/>
<path d="M0 0 C29.04 0 58.08 0 88 0 C88 25.08 88 50.16 88 76 C113.08 76 138.16 76 164 76 C164 105.04 164 134.08 164 164 C138.92 164 113.84 164 88 164 C88 189.08 88 214.16 88 240 C58.96 240 29.92 240 0 240 C0 214.92 0 189.84 0 164 C-25.08 164 -50.16 164 -76 164 C-76 134.96 -76 105.92 -76 76 C-50.92 76 -25.84 76 0 76 C0 50.92 0 25.84 0 0 Z " fill="#092440" transform="translate(404,2503)"/>
<path d="M0 0 C29.04 0 58.08 0 88 0 C88 25.08 88 50.16 88 76 C113.08 76 138.16 76 164 76 C164 105.04 164 134.08 164 164 C138.92 164 113.84 164 88 164 C88 189.08 88 214.16 88 240 C58.96 240 29.92 240 0 240 C0 214.92 0 189.84 0 164 C-25.08 164 -50.16 164 -76 164 C-76 134.96 -76 105.92 -76 76 C-50.92 76 -25.84 76 0 76 C0 50.92 0 25.84 0 0 Z " fill="#092440" transform="translate(2580,1416)"/>
<path d="M0 0 C29.04 0 58.08 0 88 0 C88 25.08 88 50.16 88 76 C113.08 76 138.16 76 164 76 C164 105.04 164 134.08 164 164 C138.92 164 113.84 164 88 164 C88 189.08 88 214.16 88 240 C58.96 240 29.92 240 0 240 C0 214.92 0 189.84 0 164 C-25.08 164 -50.16 164 -76 164 C-76 134.96 -76 105.92 -76 76 C-50.92 76 -25.84 76 0 76 C0 50.92 0 25.84 0 0 Z " fill="#092440" transform="translate(1492,1416)"/>
<path d="M0 0 C29.04 0 58.08 0 88 0 C88 25.08 88 50.16 88 76 C113.08 76 138.16 76 164 76 C164 105.04 164 134.08 164 164 C138.92 164 113.84 164 88 164 C88 189.08 88 214.16 88 240 C58.96 240 29.92 240 0 240 C0 214.92 0 189.84 0 164 C-25.08 164 -50.16 164 -76 164 C-76 134.96 -76 105.92 -76 76 C-50.92 76 -25.84 76 0 76 C0 50.92 0 25.84 0 0 Z " fill="#092440" transform="translate(404,1416)"/>
<path d="M0 0 C29.04 0 58.08 0 88 0 C88 25.08 88 50.16 88 76 C113.08 76 138.16 76 164 76 C164 105.04 164 134.08 164 164 C138.92 164 113.84 164 88 164 C88 189.08 88 214.16 88 240 C58.96 240 29.92 240 0 240 C0 214.92 0 189.84 0 164 C-25.08 164 -50.16 164 -76 164 C-76 134.96 -76 105.92 -76 76 C-50.92 76 -25.84 76 0 76 C0 50.92 0 25.84 0 0 Z " fill="#092440" transform="translate(2580,328)"/>
<path d="M0 0 C29.04 0 58.08 0 88 0 C88 25.08 88 50.16 88 76 C113.08 76 138.16 76 164 76 C164 105.04 164 134.08 164 164 C138.92 164 113.84 164 88 164 C88 189.08 88 214.16 88 240 C58.96 240 29.92 240 0 240 C0 214.92 0 189.84 0 164 C-25.08 164 -50.16 164 -76 164 C-76 134.96 -76 105.92 -76 76 C-50.92 76 -25.84 76 0 76 C0 50.92 0 25.84 0 0 Z " fill="#092440" transform="translate(1492,328)"/>
<path d="M0 0 C29.04 0 58.08 0 88 0 C88 25.08 88 50.16 88 76 C113.08 76 138.16 76 164 76 C164 105.04 164 134.08 164 164 C138.92 164 113.84 164 88 164 C88 189.08 88 214.16 88 240 C58.96 240 29.92 240 0 240 C0 214.92 0 189.84 0 164 C-25.08 164 -50.16 164 -76 164 C-76 134.96 -76 105.92 -76 76 C-50.92 76 -25.84 76 0 76 C0 50.92 0 25.84 0 0 Z " fill="#092440" transform="translate(404,328)"/>
<path d="M0 0 C21.78 0 43.56 0 66 0 C66 22.77 66 45.54 66 69 C44.22 69 22.44 69 0 69 C0 46.23 0 23.46 0 0 Z " fill="#09253F" transform="translate(2575,2739)"/>
</svg>
